<svg width="174" height="18" viewBox="0 0 174 18" fill="none" xmlns="http://www.w3.org/2000/svg">
<path d="M6.5 4L5.58 3.976H0V1.192H14.88V3.976H9.3L8 4H6.5ZM15.7503 9.592V1.192H19.4703V3.94001H26.9103V1.192H30.6303V9.592H26.9103V6.604H19.4703V9.592H15.7503ZM39.3117 9.78401C34.3517 9.78401 31.8717 8.188 31.8717 4.99601V1.192H35.5917V4.876C35.5917 6.308 36.8317 7.024 39.3117 7.024C41.7917 7.024 43.0317 6.308 43.0317 4.876V1.192H46.7517V4.99601C46.7517 8.188 44.2717 9.78401 39.3117 9.78401ZM47.9886 9.592V1.192H51.6606L59.1486 5.82401V1.192H62.8686V9.592H59.1966L51.7086 4.96001V9.592H47.9886ZM64.266 9.592V1.192H74.214C75.214 1.192 76.082 1.36 76.818 1.696C77.562 2.03199 78.134 2.508 78.534 3.124C78.942 3.74001 79.146 4.47201 79.146 5.32001V5.46401C79.146 6.31201 78.942 7.044 78.534 7.66C78.134 8.276 77.562 8.75201 76.818 9.08801C76.082 9.42401 75.214 9.592 74.214 9.592H64.266ZM67.986 6.88H73.854C74.278 6.88 74.618 6.75601 74.874 6.50801C75.13 6.25201 75.258 5.90401 75.258 5.46401V5.32001C75.258 4.88001 75.13 4.53601 74.874 4.288C74.618 4.032 74.278 3.904 73.854 3.904H67.986V6.88ZM80.1917 9.592V1.192H95.0718V3.61599H83.9117V4.36H93.7758V6.424H83.9117V7.168H95.0718V9.592H80.1917ZM96.2347 9.592V1.192H108.199C109.055 1.192 109.711 1.384 110.167 1.768C110.623 2.14401 110.851 2.66401 110.851 3.32801C110.851 3.84 110.695 4.25599 110.383 4.576C110.071 4.896 109.583 5.116 108.919 5.236V5.476C109.647 5.54001 110.195 5.74801 110.563 6.10001C110.931 6.44401 111.115 6.89201 111.115 7.44401V9.592H107.227V7.564C107.227 7.42 107.183 7.30401 107.095 7.21601C107.007 7.12801 106.887 7.08401 106.735 7.08401H99.9547V9.592H96.2347ZM99.9547 4.804H106.495C106.647 4.804 106.767 4.75601 106.855 4.66001C106.943 4.56401 106.987 4.43601 106.987 4.27601C106.987 4.1 106.939 3.968 106.843 3.88001C106.747 3.79201 106.631 3.748 106.495 3.748H99.9547V4.804ZM119.087 9.78401C117.583 9.78401 116.271 9.608 115.151 9.256C114.039 8.904 113.179 8.40801 112.571 7.76801C111.963 7.12001 111.659 6.35201 111.659 5.46401V5.32001C111.659 4.43201 111.963 3.668 112.571 3.028C113.179 2.38 114.039 1.88 115.151 1.528C116.271 1.176 117.583 1 119.087 1C120.903 1 122.439 1.26 123.695 1.78C124.951 2.29201 125.895 3.01201 126.527 3.94001L122.795 5.04401C122.475 4.62801 122.007 4.31199 121.391 4.09599C120.783 3.87199 120.015 3.75999 119.087 3.75999C118.383 3.75999 117.763 3.82399 117.227 3.95199C116.699 4.07999 116.287 4.26 115.991 4.49201C115.695 4.724 115.547 5 115.547 5.32001V5.46401C115.547 5.78401 115.695 6.064 115.991 6.304C116.287 6.536 116.699 6.716 117.227 6.844C117.763 6.964 118.383 7.024 119.087 7.024C120.015 7.024 120.783 6.916 121.391 6.7C122.007 6.476 122.475 6.156 122.795 5.74L126.527 6.844C125.895 7.772 124.951 8.496 123.695 9.016C122.439 9.528 120.903 9.78401 119.087 9.78401ZM134.299 9.78401C132.779 9.78401 131.459 9.612 130.339 9.268C129.227 8.916 128.367 8.41601 127.759 7.76801C127.159 7.12001 126.859 6.35201 126.859 5.46401V5.32001C126.859 4.42401 127.159 3.656 127.759 3.016C128.367 2.36801 129.227 1.872 130.339 1.528C131.459 1.176 132.779 1 134.299 1C135.827 1 137.147 1.176 138.259 1.528C139.371 1.872 140.227 2.36801 140.827 3.016C141.435 3.656 141.739 4.42401 141.739 5.32001V5.46401C141.739 6.35201 141.435 7.12001 140.827 7.76801C140.227 8.41601 139.371 8.916 138.259 9.268C137.147 9.612 135.827 9.78401 134.299 9.78401ZM134.299 7.024C135.395 7.024 136.259 6.888 136.891 6.616C137.531 6.336 137.851 5.95201 137.851 5.46401V5.32001C137.851 4.83201 137.531 4.452 136.891 4.18C136.259 3.9 135.395 3.75999 134.299 3.75999C133.211 3.75999 132.347 3.9 131.707 4.18C131.067 4.452 130.747 4.83201 130.747 5.32001V5.46401C130.747 5.95201 131.067 6.336 131.707 6.616C132.347 6.888 133.211 7.024 134.299 7.024ZM142.7 9.592V1.192H154.664C155.52 1.192 156.176 1.384 156.632 1.768C157.088 2.14401 157.316 2.66401 157.316 3.32801C157.316 3.84 157.16 4.25599 156.848 4.576C156.536 4.896 156.048 5.116 155.384 5.236V5.476C156.112 5.54001 156.66 5.74801 157.028 6.10001C157.396 6.44401 157.58 6.89201 157.58 7.44401V9.592H153.692V7.564C153.692 7.42 153.648 7.30401 153.56 7.21601C153.472 7.12801 153.352 7.08401 153.2 7.08401H146.42V9.592H142.7ZM146.42 4.804H152.96C153.112 4.804 153.232 4.75601 153.32 4.66001C153.408 4.56401 153.452 4.43601 153.452 4.27601C153.452 4.1 153.404 3.968 153.308 3.88001C153.212 3.79201 153.096 3.748 152.96 3.748H146.42V4.804ZM158.661 9.592V1.192H170.049C171.209 1.192 172.061 1.428 172.605 1.9C173.149 2.36401 173.421 3.072 173.421 4.024C173.421 4.664 173.301 5.232 173.061 5.72799C172.829 6.22399 172.465 6.61601 171.969 6.90401C171.473 7.18401 170.833 7.32401 170.049 7.32401H162.381V9.592H158.661ZM169.041 3.748H162.381V4.804H169.041C169.193 4.804 169.313 4.75601 169.401 4.66001C169.489 4.56401 169.533 4.43601 169.533 4.27601C169.533 4.10801 169.485 3.98 169.389 3.89199C169.301 3.79599 169.185 3.748 169.041 3.748Z" fill="white"/>
<path d="M12.366 2.13944L6.38172 2.0561L1.65337 8.55014L4.09273 9.15834L1.09054 15.4533L11.0785 7.30338L7.43228 7.62316L12.366 2.13944Z" fill="white"/>
</svg>
